# xmcd
#
# Track frame offsets:
#	150
#	18217
#	37717
#	59087
#	75620
#	92785
#	103492
#	113897
#	131225
#	151725
#	170267
#	192310
#	204782
#	230772
#	251832
#	272702
#	296605
#	309830
#	321602
#
# Disc length: 4525 seconds
#
# Revision: 0
# Processed by: cddbd v1.5.2PL0 Copyright (c) Steve Scherf et al.
# Submitted via: EasyCDDAExtractor 12.0.1.1
#
DISCID=0d11ab13
DTITLE=Simon and Garfunkel - The Concert In Central Park
DYEAR=1982
DGENRE=
TTITLE0=Mrs. Robinson
TTITLE1=Homeward Bound
TTITLE2=America
TTITLE3=Me And Julio Down By The Schoolyard
TTITLE4=Scarborough Fair
TTITLE5=April Come She Will
TTITLE6=Wake Up Little Susie
TTITLE7=Still Crazy After All These Years
TTITLE8=American Tune
TTITLE9=Late In The Evening
TTITLE10=Slip Slidin' Away
TTITLE11=A Heart In New York
TTITLE12=Kodachrome - Maybellene
TTITLE13=Bridge Over Troubled Water
TTITLE14=Fifty Ways To Leave Your Lover
TTITLE15=The Boxer
TTITLE16=Old Friends
TTITLE17=The 59th Street Bridge Song (Feelin' Groovy)
TTITLE18=The Sound Of Silence
EXTD=
EXTT0=
EXTT1=
EXTT2=
EXTT3=
EXTT4=
EXTT5=
EXTT6=
EXTT7=
EXTT8=
EXTT9=
EXTT10=
EXTT11=
EXTT12=
EXTT13=
EXTT14=
EXTT15=
EXTT16=
EXTT17=
EXTT18=
PLAYORDER=
